
      <svg data-logo="logo" xmlns="http://www.w3.org/2000/svg" viewBox="0 0 213.42001342773438 42">
        <g id="logogram" transform="
    translate(0, 0.5)
    rotate(0 21 20.5)
    
  "><path fill-rule="evenodd" clip-rule="evenodd" d="M21.1457 0.0799561C32.4075 0.0799561 41.537 9.20943 41.537 20.4712C41.537 31.7331 32.4075 40.8626 21.1457 40.8626C9.88389 40.8626 0.754395 31.7331 0.754395 20.4712C0.754395 9.20943 9.88389 0.0799561 21.1457 0.0799561ZM40.7543 20.4712C40.7543 9.64173 31.9752 0.862577 21.1457 0.862577C20.2721 0.862577 19.412 0.919697 18.5686 1.03041C19.1135 0.982767 19.6649 0.958447 20.2221 0.958447C30.5703 0.958447 38.9592 9.34733 38.9592 19.6955C38.9592 30.0436 30.5703 38.4325 20.2221 38.4325C10.4252 38.4325 2.38439 30.9136 1.55556 21.3315C2.00581 31.7619 10.6043 40.0799 21.1457 40.0799C31.9752 40.0799 40.7543 31.3008 40.7543 20.4712ZM38.1765 19.6955C38.1765 9.77953 30.1381 1.74108 20.2221 1.74108C19.417 1.74108 18.6242 1.79408 17.8471 1.89677C18.3256 1.85651 18.8097 1.83597 19.2986 1.83597C28.7332 1.83597 36.3814 9.48423 36.3814 18.9187C36.3814 28.3533 28.7332 36.0015 19.2986 36.0015C10.378 36.0015 3.05442 29.1638 2.28305 20.4436C2.67524 30.0126 10.5568 37.6499 20.2221 37.6499C30.1381 37.6499 38.1765 29.6114 38.1765 19.6955ZM19.2986 2.6186C28.3009 2.6186 35.5988 9.91643 35.5988 18.9187C35.5988 27.921 28.3009 35.2188 19.2986 35.2188C10.5049 35.2188 3.33757 28.2552 3.01022 19.5415C3.71697 27.4065 10.3263 33.5704 18.3752 33.5704C26.8955 33.5704 33.8027 26.6633 33.8027 18.1429C33.8027 9.62253 26.8955 2.71544 18.3752 2.71544C17.9344 2.71544 17.4979 2.73393 17.0665 2.77016C17.7963 2.67023 18.5414 2.6186 19.2986 2.6186ZM33.02 18.1429C33.02 10.0548 26.4633 3.49807 18.3752 3.49807C17.6918 3.49807 17.0193 3.54487 16.3609 3.63545C16.7204 3.60731 17.0838 3.59298 17.4506 3.59298C25.0574 3.59298 31.2239 9.75943 31.2239 17.3662C31.2239 24.9729 25.0574 31.1394 17.4506 31.1394C10.291 31.1394 4.40731 25.6765 3.7404 18.6916C4.02893 26.5255 10.4707 32.7878 18.3752 32.7878C26.4633 32.7878 33.02 26.2311 33.02 18.1429ZM17.4506 4.3756C24.6251 4.3756 30.4412 10.1917 30.4412 17.3662C30.4412 24.5407 24.6251 30.3568 17.4506 30.3568C10.4175 30.3568 4.68975 24.7676 4.46681 17.7886C5.06894 23.9188 10.2387 28.7084 16.5271 28.7084C23.2203 28.7084 28.6461 23.2825 28.6461 16.5894C28.6461 9.89633 23.2203 4.47049 16.5271 4.47049C16.2202 4.47049 15.9159 4.4819 15.6147 4.50432C16.2145 4.41948 16.8274 4.3756 17.4506 4.3756ZM27.8635 16.5894C27.8635 10.3285 22.788 5.25312 16.5271 5.25312C15.9556 5.25312 15.394 5.29541 14.8452 5.37703C15.0957 5.35909 15.3486 5.34996 15.6037 5.34996C21.3826 5.34996 26.0674 10.0347 26.0674 15.8136C26.0674 21.5926 21.3826 26.2773 15.6037 26.2773C10.1885 26.2773 5.73412 22.1638 5.19479 16.891C5.35468 23.0125 10.3672 27.9258 16.5271 27.9258C22.788 27.9258 27.8635 22.8503 27.8635 16.5894ZM15.6037 6.13259C20.9504 6.13259 25.2847 10.4669 25.2847 15.8136C25.2847 21.1604 20.9504 25.4947 15.6037 25.4947C10.325 25.4947 6.03311 21.27 5.92472 16.0173C6.41235 20.4212 10.1463 23.8463 14.6802 23.8463C19.5455 23.8463 23.4896 19.9022 23.4896 15.0369C23.4896 10.1716 19.5455 6.22748 14.6802 6.22748C14.4941 6.22748 14.3094 6.23325 14.1262 6.24462C14.6079 6.17085 15.1013 6.13259 15.6037 6.13259ZM22.707 15.0369C22.707 10.6038 19.1133 7.01011 14.6802 7.01011C14.235 7.01011 13.7983 7.04635 13.3728 7.11604C13.4996 7.10936 13.6272 7.10598 13.7557 7.10598C17.7073 7.10598 20.9108 10.3094 20.9108 14.2611C20.9108 18.2128 17.7073 21.4163 13.7557 21.4163C10.1018 21.4163 7.08755 18.6773 6.65407 15.1405C6.70957 19.5259 10.2817 23.0637 14.6802 23.0637C19.1133 23.0637 22.707 19.47 22.707 15.0369ZM13.7557 7.8886C17.2751 7.8886 20.1282 10.7416 20.1282 14.2611C20.1282 17.7806 17.2751 20.6336 13.7557 20.6336C10.2363 20.6336 7.38318 17.7806 7.38318 14.2611C7.38318 14.2527 7.3832 14.2442 7.38323 14.2358C7.74965 16.9178 10.0496 18.9843 12.8322 18.9843C15.8697 18.9843 18.3321 16.5219 18.3321 13.4844C18.3321 10.4468 15.8697 7.98449 12.8322 7.98449C12.7635 7.98449 12.6951 7.98574 12.627 7.98824C12.9933 7.92277 13.3705 7.8886 13.7557 7.8886ZM17.5494 13.4844C17.5494 10.8791 15.4375 8.76711 12.8322 8.76711C10.2269 8.76711 8.11495 10.8791 8.11495 13.4844C8.11495 16.0896 10.2269 18.2016 12.8322 18.2016C15.4375 18.2016 17.5494 16.0896 17.5494 13.4844Z" fill="#1A1414"/></g>
        <g id="logotype" transform="translate(48, 8.79)"><path fill="#1a1414" d="M13.88 24.42L13.88 24.42Q10.97 24.42 9.13 23.07Q7.29 21.73 7.29 19.31L7.29 19.31Q7.29 16.82 8.85 15.48Q10.41 14.13 13.46 13.50L13.46 13.50L19.51 12.31Q19.51 10.49 18.69 9.56Q17.87 8.63 16.33 8.63L16.33 8.63Q14.82 8.63 13.98 9.32Q13.14 10.00 12.89 11.33L12.89 11.33L7.61 11.08Q8.13 8.00 10.39 6.41Q12.65 4.82 16.33 4.82L16.33 4.82Q20.53 4.82 22.64 6.81Q24.76 8.81 24.76 12.66L24.76 12.66L24.76 19.06Q24.76 19.87 25.02 20.13Q25.29 20.39 25.81 20.39L25.81 20.39L26.34 20.39L26.34 24Q26.09 24.07 25.55 24.14Q25.01 24.21 24.48 24.21L24.48 24.21Q23.36 24.21 22.40 23.82Q21.44 23.44 20.84 22.51Q20.25 21.59 20.25 19.87L20.25 19.87L20.70 20.22Q20.35 21.48 19.46 22.43Q18.57 23.37 17.15 23.89Q15.73 24.42 13.88 24.42ZM15.14 20.81L15.14 20.81Q16.43 20.81 17.41 20.31Q18.39 19.80 18.95 18.82Q19.51 17.84 19.51 16.51L19.51 16.51L19.51 15.60L15.24 16.51Q13.98 16.75 13.33 17.33Q12.69 17.91 12.69 18.82L12.69 18.82Q12.69 19.77 13.32 20.29Q13.95 20.81 15.14 20.81ZM33.93 24.42L33.93 24.42Q31.03 24.42 29.40 22.55Q27.77 20.68 27.77 17.31L27.77 17.31L27.77 5.24L33.02 5.24L33.02 16.09Q33.02 18.26 33.69 19.26Q34.35 20.25 35.79 20.25L35.79 20.25Q37.40 20.25 38.29 19.15Q39.18 18.05 39.18 15.84L39.18 15.84L39.18 5.24L44.43 5.24L44.43 24L39.64 24L39.50 18.61L40.16 18.75Q39.74 21.55 38.17 22.98Q36.59 24.42 33.93 24.42ZM59.55 24L55 24Q52.09 24 50.73 22.65Q49.37 21.30 49.37 18.36L49.37 18.36L49.37 0.83L54.62 0.83L54.62 17.73Q54.62 19.10 55.19 19.59Q55.77 20.08 56.93 20.08L56.93 20.08L59.55 20.08L59.55 24ZM59.55 9.16L46.36 9.16L46.36 5.24L59.55 5.24L59.55 9.16ZM69.77 24.42L69.77 24.42Q66.90 24.42 64.77 23.21Q62.63 22.00 61.44 19.80Q60.25 17.59 60.25 14.62L60.25 14.62Q60.25 11.64 61.44 9.46Q62.63 7.27 64.77 6.04Q66.90 4.82 69.77 4.82L69.77 4.82Q72.64 4.82 74.78 6.04Q76.91 7.27 78.10 9.46Q79.29 11.64 79.29 14.62L79.29 14.62Q79.29 17.59 78.10 19.80Q76.91 22.00 74.78 23.21Q72.64 24.42 69.77 24.42ZM69.77 20.39L69.77 20.39Q71.73 20.39 72.82 18.87Q73.90 17.35 73.90 14.62L73.90 14.62Q73.90 11.89 72.82 10.37Q71.73 8.84 69.77 8.84L69.77 8.84Q67.81 8.84 66.73 10.37Q65.64 11.89 65.64 14.62L65.64 14.62Q65.64 17.35 66.73 18.87Q67.81 20.39 69.77 20.39ZM92.84 15.95L80.83 15.95L80.83 11.64L92.84 11.64L92.84 15.95ZM103.90 24.42L103.90 24.42Q101.03 24.42 98.89 23.21Q96.76 22.00 95.57 19.80Q94.38 17.59 94.38 14.62L94.38 14.62Q94.38 11.64 95.57 9.46Q96.76 7.27 98.89 6.04Q101.03 4.82 103.90 4.82L103.90 4.82Q106.38 4.82 108.36 5.69Q110.34 6.57 111.56 8.21Q112.79 9.86 113.07 12.17L113.07 12.17L107.64 12.41Q107.40 10.66 106.40 9.77Q105.40 8.88 103.90 8.88L103.90 8.88Q101.94 8.88 100.85 10.38Q99.77 11.89 99.77 14.62L99.77 14.62Q99.77 17.35 100.85 18.87Q101.94 20.39 103.90 20.39L103.90 20.39Q105.40 20.39 106.42 19.47Q107.43 18.54 107.64 16.65L107.64 16.65L113.07 16.86Q112.82 19.17 111.61 20.87Q110.41 22.57 108.43 23.49Q106.45 24.42 103.90 24.42ZM120.70 24.42L120.70 24.42Q117.79 24.42 115.95 23.07Q114.12 21.73 114.12 19.31L114.12 19.31Q114.12 16.82 115.67 15.48Q117.23 14.13 120.28 13.50L120.28 13.50L126.33 12.31Q126.33 10.49 125.51 9.56Q124.69 8.63 123.15 8.63L123.15 8.63Q121.64 8.63 120.80 9.32Q119.96 10.00 119.72 11.33L119.72 11.33L114.43 11.08Q114.96 8.00 117.21 6.41Q119.47 4.82 123.15 4.82L123.15 4.82Q127.35 4.82 129.46 6.81Q131.58 8.81 131.58 12.66L131.58 12.66L131.58 19.06Q131.58 19.87 131.84 20.13Q132.11 20.39 132.63 20.39L132.63 20.39L133.16 20.39L133.16 24Q132.91 24.07 132.37 24.14Q131.83 24.21 131.30 24.21L131.30 24.21Q130.18 24.21 129.22 23.82Q128.26 23.44 127.66 22.51Q127.07 21.59 127.07 19.87L127.07 19.87L127.52 20.22Q127.17 21.48 126.28 22.43Q125.39 23.37 123.97 23.89Q122.55 24.42 120.70 24.42ZM121.96 20.81L121.96 20.81Q123.25 20.81 124.23 20.31Q125.21 19.80 125.77 18.82Q126.33 17.84 126.33 16.51L126.33 16.51L126.33 15.60L122.06 16.51Q120.80 16.75 120.15 17.33Q119.51 17.91 119.51 18.82L119.51 18.82Q119.51 19.77 120.14 20.29Q120.77 20.81 121.96 20.81ZM140.12 24L134.87 24L134.87 5.24L139.84 5.24L140.02 10.70L139.63 10.59Q140.09 7.76 141.24 6.50Q142.40 5.24 144.43 5.24L144.43 5.24L146.14 5.24L146.14 9.58L144.43 9.58Q142.96 9.58 142.01 9.96Q141.06 10.35 140.59 11.19Q140.12 12.03 140.12 13.46L140.12 13.46L140.12 24ZM155.31 24.42L155.31 24.42Q152.40 24.42 150.44 23.60Q148.48 22.77 147.45 21.36Q146.42 19.94 146.28 18.09L146.28 18.09L151.60 17.91Q151.84 19.24 152.72 19.98Q153.59 20.71 155.31 20.71L155.31 20.71Q156.71 20.71 157.50 20.25Q158.28 19.80 158.28 18.86L158.28 18.86Q158.28 18.26 158.00 17.86Q157.72 17.45 156.90 17.16Q156.08 16.86 154.47 16.61L154.47 16.61Q151.49 16.09 149.81 15.39Q148.13 14.69 147.43 13.57Q146.73 12.45 146.73 10.84L146.73 10.84Q146.73 8.14 148.82 6.48Q150.90 4.82 155.06 4.82L155.06 4.82Q157.72 4.82 159.53 5.66Q161.33 6.50 162.33 7.95Q163.32 9.40 163.57 11.26L163.57 11.26L158.28 11.47Q158.18 10.56 157.74 9.91Q157.30 9.26 156.64 8.90Q155.97 8.53 155.03 8.53L155.03 8.53Q153.63 8.53 152.88 9.11Q152.13 9.68 152.13 10.63L152.13 10.63Q152.13 11.33 152.46 11.77Q152.79 12.20 153.56 12.48Q154.33 12.76 155.63 12.94L155.63 12.94Q158.63 13.36 160.40 14.11Q162.17 14.86 162.94 15.98Q163.71 17.11 163.71 18.75L163.71 18.75Q163.71 20.57 162.66 21.83Q161.61 23.09 159.74 23.75Q157.86 24.42 155.31 24.42Z"/></g>
        
      </svg>
    